<svg xmlns="http://www.w3.org/2000/svg" viewBox="0 0 64 64">
  <rect width="64" height="64" rx="12" fill="#0f172a"/>
  <g transform="translate(6,4) scale(0.088)">
    <path fill="#8cccbf" d="M402.88,407.19v-41.61c.12,0,.27,0,.45,0,.98,0,2.49.08,3.96.15,1.48.07,3.01.15,4.03.15.91,0,1.93,0,1.93-.89v-102.18l-.74-.74h-173.26l-.74.74v102.18c0,.89,1.03.89,1.93.89,1.02,0,2.54-.08,4.02-.15,1.46-.07,2.98-.15,3.96-.15.19,0,.34,0,.45,0v41.61h-43.12c-.12-.98.54-2.1,1.03-2.94.36-.62.62-1.07.62-1.5v-37.16c.12,0,.27,0,.45,0,.98,0,2.49.08,3.95.15,1.48.07,3.01.15,4.03.15.91,0,1.93,0,1.93-.89v-102.18l-.74-.74h-104.4v-97.74c0-2.25-3.2-2.59-6.58-2.96-2.1-.23-5.26-.57-5.26-1.48v-38.27c.34-.4,1.32-1.37,1.71-1.71h41.23v39.98c0,.54-.67,1.45-5.16,1.45-.85,0-1.67-.03-2.37-.06-.54-.02-1-.04-1.36-.04-.48,0-1.48,0-1.48.86v78.48l.74.74h176.22l.74-.74v-72.56l-.74-.74h-67.45c-.47-3.44-3.12-7.82-5.69-12.07-2.17-3.59-4.22-6.98-4.4-8.98-.09-.97.9-2.55,1.29-2.64h171.76c.37.09,1.37,1.67,1.28,2.64-.18,2-2.23,5.39-4.4,8.98-2.57,4.25-5.22,8.64-5.69,12.07h-64.48l-.74.74v72.56l.74.74h176.22l.74-.74v-78.48c0-.89-1.03-.89-1.93-.89-1.02,0-2.55.08-4.03.15-1.46.07-2.97.15-3.95.15-.19,0-.34,0-.45,0v-41.61h41.46v39.98c0,.54-.67,1.45-5.16,1.45-.85,0-1.67-.03-2.37-.06-.54-.02-1-.04-1.36-.04-.48,0-1.48,0-1.48.86v99.96h-95.51l-.74.74v102.18c0,.89,1.03.89,1.93.89,1.01,0,2.54-.08,4.02-.15,1.46-.07,2.97-.15,3.96-.15.19,0,.34,0,.45,0v41.61h-41.46Z"/>
    <polygon fill="#8cccbf" points="262.2 44.39 381.87 44.39 262.2 122.25 262.2 44.39"/>
    <path fill="#8cccbf" d="M243.89,130.42c-2.71,0-6.02-.88-6.52-3.34l1.13-101.94h168.82v103.96c-1.57.43-7.89,1.08-10.37,1.18V36.24l-.74-.74h-146.6l-.74.74v92.55c0,.65-1.99,1.62-4.98,1.62Z"/>
    <rect fill="#8cccbf" x="261.45" y="395.01" width="123.69" height="12.92"/>
    <rect fill="#8cccbf" x="453.11" y="395.01" width="85.78" height="12.92"/>
  </g>
</svg>