<?xml version="1.0" encoding="UTF-8"?>
<svg id="Layer_1" xmlns="http://www.w3.org/2000/svg" version="1.1" viewBox="0 0 595.28 595.28">
  <!-- Generator: Adobe Illustrator 30.1.0, SVG Export Plug-In . SVG Version: 2.1.1 Build 136)  -->
  <defs>
    <style>
      .st0 {
        stroke-width: 1.72px;
      }

      .st0, .st1, .st2, .st3 {
        fill: #8cccbf;
      }

      .st0, .st1, .st3 {
        stroke: #1a1a18;
        stroke-miterlimit: 10;
      }

      .st4 {
        fill: #1a1a18;
      }

      .st1 {
        stroke-width: 2px;
      }

      .st5 {
        fill: #575656;
        font-family: DaxPro-Light, DaxPro;
        font-size: 32.31px;
        font-weight: 300;
      }

      .st3 {
        stroke-width: 1.43px;
      }
    </style>
  </defs>
  <g>
    <path class="st1" d="M108.29,495.22c0,2.55-.14,4.29-.43,5.21-.5,1.21-1.42,1.81-2.77,1.81h-4.79c-1.99,0-3.97-1.35-5.96-4.04l-41.92-56.17v11.92c0,3.05.53,5.43,1.6,7.13l3.19,5c1.06,1.7,1.6,3.72,1.6,6.06v26.92c0,2.13-1.17,3.19-3.51,3.19h-8.51c-1.85,0-2.77-1.06-2.77-3.19v-67.77c0-1.63.21-2.73.64-3.3.43-.57,1.49-.85,3.19-.85h2.13c1.63,0,2.84.25,3.62.74.57.36,1.42,1.31,2.55,2.87l42.77,59.68v-59.15c0-2.77.96-4.15,2.87-4.15h3.19c2.2,0,3.3,1.38,3.3,4.15v63.94Z"/>
    <path class="st1" d="M167.44,499.58c0,1.28-.27,2.04-.8,2.29-.53.25-1.72.37-3.56.37h-40.11c-3.12,0-4.68-1.31-4.68-3.94v-66.6c0-1.21.48-2.27,1.44-3.19.96-.92,2.11-1.38,3.46-1.38h39.9c1.49,0,2.41.07,2.77.21.5.36.74,1.17.74,2.45v2.45c0,1.49-.2,2.41-.59,2.77-.39.36-1.37.53-2.93.53h-33.62c-1.42,0-2.13.57-2.13,1.7v21.92c0,1.13.74,1.7,2.23,1.7h33.51c2.34,0,3.51.82,3.51,2.45v2.98c0,1.99-1.17,2.98-3.51,2.98h-28.19c-1.56,0-2.34.67-2.34,2.02v20.53c0,1.06.78,1.6,2.34,1.6h28.19c1.63,0,2.77.14,3.4.42.64.29.96,1.03.96,2.23v3.51Z"/>
    <path class="st1" d="M237.87,439.15c0,2.62-1.53,3.94-4.58,3.94h-17.87c-1.92,0-3.3.23-4.15.69-.85.46-1.28,1.4-1.28,2.82v51.92c0,2.48-.99,3.72-2.98,3.72h-3.72c-1.92,0-2.87-1.24-2.87-3.72v-59.47c0-2.84-1.14-4.25-3.4-4.25h-20.96c-2.13,0-3.19-.89-3.19-2.66v-3.19c0-1.21,1.06-1.81,3.19-1.81h56.81c3.33,0,5,1.35,5,4.04v7.98Z"/>
    <path class="st1" d="M318.51,497.88c0,1.14-.48,2.15-1.44,3.03-.96.89-2.11,1.33-3.46,1.33h-24.04c-4.12,0-6.28-1.84-6.49-5.53-.21,3.69-2.41,5.53-6.6,5.53h-26.49c-1.56,0-2.86-.48-3.88-1.44-1.03-.96-1.54-2.07-1.54-3.35v-66.92c0-2.27.99-3.4,2.98-3.4h3.51c1.92,0,2.87,1.03,2.87,3.08v28.73c0,1.84.57,3.65,1.7,5.43l3.19,5c.99,1.56,1.49,3.58,1.49,6.06v14.58c0,1.63.25,2.68.74,3.14.5.46,1.42.69,2.77.69h9.89c3.26,0,4.89-1.74,4.89-5.21v-58.3c0-2.13.78-3.19,2.34-3.19h3.83c1.77,0,2.66.99,2.66,2.98v58.51c0,3.48,1.63,5.21,4.89,5.21h14.68c1.56,0,2.34-.99,2.34-2.98v-60.75c0-1.98.89-2.98,2.66-2.98h3.94c1.7,0,2.55,1.06,2.55,3.19v67.56Z"/>
    <path class="st1" d="M392.46,496.82c0,1.56-.55,2.86-1.65,3.88-1.1,1.03-2.46,1.54-4.09,1.54h-52.68c-1.63,0-2.99-.51-4.09-1.54-1.1-1.03-1.65-2.32-1.65-3.88v-65.11c0-1.21.48-2.27,1.43-3.19.96-.92,2.11-1.38,3.45-1.38h54.38c1.34,0,2.5.46,3.45,1.38.96.92,1.43,1.99,1.43,3.19v65.11ZM382.56,454.9v-16.49c0-1.35-.18-2.23-.53-2.66-.35-.43-1.24-.64-2.65-.64h-38.53c-1.2,0-2,.23-2.39.69-.39.46-.58,1.33-.58,2.61v51.28c0,1.63.11,2.62.32,2.98.28.57,1.17.85,2.66.85h33.3c1.35,0,2.2-.25,2.55-.75.35-.5.53-1.52.53-3.08v-14.26c0-.14-.04-.53-.11-1.17-.07-.64-.11-1.21-.11-1.7,0-1.99.56-4.11,1.67-6.38l2.51-5.11c.9-1.84,1.36-3.9,1.36-6.17Z"/>
    <path class="st1" d="M466.93,499.27c0,1.99-.89,2.98-2.66,2.98h-2.98c-1.99,0-2.98-.99-2.98-2.98v-27.45c0-.78-.36-1.49-1.07-2.13-.71-.64-1.56-.96-2.56-.96h-33.39c-2.49,0-3.73,1.21-3.73,3.62v26.92c0,1.99-1.2,2.98-3.59,2.98h-8.66c-1.97,0-2.96-.99-2.96-2.98v-67.13c0-3.33,1.63-5,4.89-5h44.9c1.42,0,2.66.51,3.72,1.54,1.06,1.03,1.6,2.18,1.6,3.46v24.15c0,1.42.11,2.31.32,2.66.21.36.92.71,2.13,1.06l3.72,1.06c2.2.64,3.3,2.55,3.3,5.75v32.45ZM448.42,456.71v-17.24c0-1.35-.16-2.2-.48-2.55-.32-.35-1.19-.53-2.61-.53h-31.17c-1.13,0-1.88.12-2.23.37-.36.25-.53.9-.53,1.97v18.73c0,1.42,1.1,2.13,3.3,2.13h31.07c1.28,0,2.04-.14,2.29-.42.25-.28.37-1.1.37-2.45Z"/>
    <path class="st1" d="M537.36,499.05c0,2.13-.82,3.2-2.45,3.2h-3.4c-1.7,0-2.55-.99-2.55-2.98v-25.53c0-1.98-.37-3.23-1.12-3.72-.74-.5-2.11-.75-4.1-.75h-30.64c-1.42,0-2.38.23-2.87.69-.5.46-.75,1.4-.75,2.82v26.28c0,2.13-.85,3.19-2.55,3.19h-9.26c-2.27,0-3.4-1.03-3.4-3.08v-27.02c0-2.48.5-4.5,1.49-6.06l3.19-5.11c1.13-1.84,1.7-3.79,1.7-5.85v-25.32c0-1.77.71-2.66,2.13-2.66h4.25c1.63,0,2.45.85,2.45,2.54v28.42c0,1.2.18,1.96.53,2.28.35.32,1.06.48,2.13.48h30.75c2.2,0,3.65-.18,4.36-.53,1.13-.63,1.7-1.98,1.7-4.03v-26.2c0-1.98.85-2.97,2.55-2.97h3.08c1.84,0,2.77,1.06,2.77,3.19v27.51c0,4.11-1.88,6.26-5.64,6.48,3.76.21,5.64,2.42,5.64,6.61v28.13Z"/>
  </g>
  <text class="st5" transform="translate(245.11 545.1)"><tspan x="0" y="0">by LuMi GRAF solutions</tspan></text>
  <g>
    <path class="st1" d="M100.64,405.7c0,1.49-1.21,2.23-3.62,2.23h-48.51c-2.27,0-3.4-1.03-3.4-3.08v-27.02c0-2.48.5-4.5,1.49-6.06l3.19-5.11c1.13-1.84,1.7-3.62,1.7-5.32v-25.85c0-1.77.71-2.66,2.13-2.66h4.89c1.56,0,2.34,1.03,2.34,3.08v61.07c0,1.06.14,1.75.43,2.07.28.32.96.48,2.02.48h34.15c2.13,0,3.19.85,3.19,2.55v3.62Z"/>
    <path class="st1" d="M181.7,404.74c0,2.13-.82,3.19-2.45,3.19h-2.87c-1.56,0-2.34-.99-2.34-2.98v-60.75c0-1.99-.78-2.98-2.34-2.98h-16.17c-3.19,0-4.79,1.74-4.79,5.21v58.52c0,1.99-.92,2.98-2.77,2.98h-3.19c-1.99,0-2.98-1.06-2.98-3.19v-58.3c0-3.47-1.63-5.21-4.89-5.21h-16.7c-1.35,0-2.27.23-2.77.69-.5.46-.75,1.51-.75,3.14v15.64c-.07.43-.11.75-.11.96,0,1.63.56,3.33,1.67,5.11l3.14,5c1.05,1.7,1.57,3.72,1.57,6.06v27.02c0,2.06-1.16,3.08-3.49,3.08h-9.19c-1.69,0-2.54-1.06-2.54-3.19v-67.13c0-3.19,1.84-4.79,5.53-4.79h26.38c4.18,0,6.38,1.84,6.6,5.53.21-3.69,2.38-5.53,6.49-5.53h23.62c1.49,0,2.75.46,3.78,1.38,1.03.92,1.54,2.02,1.54,3.3v67.24Z"/>
  </g>
  <g>
    <g>
      <path class="st2" d="M402.88,407.19v-41.61c.12,0,.27,0,.45,0,.98,0,2.49.08,3.96.15,1.48.07,3.01.15,4.03.15.91,0,1.93,0,1.93-.89v-102.18l-.74-.74h-173.26l-.74.74v102.18c0,.89,1.03.89,1.93.89,1.02,0,2.54-.08,4.02-.15,1.46-.07,2.98-.15,3.96-.15.19,0,.34,0,.45,0v41.61h-43.12c-.12-.98.54-2.1,1.03-2.94.36-.62.62-1.07.62-1.5v-37.16c.12,0,.27,0,.45,0,.98,0,2.49.08,3.95.15,1.48.07,3.01.15,4.03.15.91,0,1.93,0,1.93-.89v-102.18l-.74-.74h-104.4v-97.74c0-2.25-3.2-2.59-6.58-2.96-2.1-.23-5.26-.57-5.26-1.48v-38.27c.34-.4,1.32-1.37,1.71-1.71h41.23v39.98c0,.54-.67,1.45-5.16,1.45-.85,0-1.67-.03-2.37-.06-.54-.02-1-.04-1.36-.04-.48,0-1.48,0-1.48.86v78.48l.74.74h176.22l.74-.74v-72.56l-.74-.74h-67.45c-.47-3.44-3.12-7.82-5.69-12.07-2.17-3.59-4.22-6.98-4.4-8.98-.09-.97.9-2.55,1.29-2.64h171.76c.37.09,1.37,1.67,1.28,2.64-.18,2-2.23,5.39-4.4,8.98-2.57,4.25-5.22,8.64-5.69,12.07h-64.48l-.74.74v72.56l.74.74h176.22l.74-.74v-78.48c0-.89-1.03-.89-1.93-.89-1.02,0-2.55.08-4.03.15-1.46.07-2.97.15-3.95.15-.19,0-.34,0-.45,0v-41.61h41.46v39.98c0,.54-.67,1.45-5.16,1.45-.85,0-1.67-.03-2.37-.06-.54-.02-1-.04-1.36-.04-.48,0-1.48,0-1.48.86v99.96h-95.51l-.74.74v102.18c0,.89,1.03.89,1.93.89,1.01,0,2.54-.08,4.02-.15,1.46-.07,2.97-.15,3.96-.15.19,0,.34,0,.45,0v41.61h-41.46Z"/>
      <path class="st4" d="M539.86,120.65v39.23s-.53.73-4.42.73c-.83,0-1.63-.03-2.34-.06-.55-.02-1.02-.04-1.39-.04-1.83,0-2.22.87-2.22,1.6v99.22h-94.77l-1.48,1.48v102.18c0,1.63,1.81,1.63,2.67,1.63,1.03,0,2.57-.08,4.06-.15,1.32-.07,2.67-.13,3.63-.15v40.13h-39.98v-40.13c.96.01,2.31.08,3.63.15,1.49.07,3.03.15,4.06.15.87,0,2.67,0,2.67-1.63v-102.18l-1.48-1.48h-173.26l-1.48,1.48v102.18c0,1.63,1.81,1.63,2.67,1.63,1.03,0,2.57-.08,4.06-.15,1.32-.07,2.67-.13,3.63-.15v40.13h-41.58c.16-.61.55-1.28.87-1.83.41-.69.73-1.24.73-1.87v-36.43c.96.01,2.31.08,3.63.15,1.49.07,3.03.15,4.06.15.87,0,2.67,0,2.67-1.63v-102.18l-1.48-1.48h-103.66v-97c0-2.92-3.68-3.31-7.25-3.69-1.41-.15-3.97-.43-4.6-.89v-37.84c.33-.36.9-.92,1.26-1.26h40.21v39.23s-.53.73-4.42.73c-.83,0-1.63-.03-2.34-.06-.55-.02-1.02-.04-1.39-.04-1.83,0-2.22.87-2.22,1.6v78.48l1.48,1.48h176.22l1.48-1.48v-72.56l-1.48-1.48h-66.82c-.7-3.47-3.23-7.66-5.68-11.72-2.03-3.36-4.13-6.83-4.3-8.67-.04-.47.43-1.48.78-1.83h171.29c.35.35.83,1.36.78,1.83-.17,1.83-2.27,5.31-4.3,8.67-2.45,4.06-4.98,8.24-5.68,11.72h-63.86l-1.48,1.48v72.56l1.48,1.48h176.22l1.48-1.48v-78.48c0-1.63-1.81-1.63-2.67-1.63-1.03,0-2.57.08-4.06.15-1.32.07-2.67.13-3.63.15v-40.13h39.98M541.34,119.17h-42.94v42.94c0,.11.46.15,1.19.15,2,0,5.98-.3,7.98-.3.73,0,1.19.04,1.19.15v78.48h-176.22v-72.56h65.16c.29-6.15,9.72-16.98,10.16-21.73.11-1.25-1.08-3.45-2.01-3.45h-171.78c-.93,0-2.13,2.2-2.01,3.45.44,4.75,9.87,15.58,10.16,21.73h68.12v72.56h-176.22v-78.48c0-.09.28-.12.74-.12.82,0,2.23.09,3.73.09,2.81,0,5.9-.32,5.9-2.19v-40.72h-42.2c-.16,0-2.22,2.06-2.22,2.22v38.5c0,3.17,11.85,1.27,11.85,4.44v98.48h105.14v102.18c0,.11-.46.15-1.19.15-2,0-5.98-.3-7.98-.3-.73,0-1.19.04-1.19.15v37.76c0,.75-2.34,3.11-1.48,5.18h44.43v-42.94c0-.11-.46-.15-1.19-.15-2,0-5.98.3-7.98.3-.73,0-1.19-.04-1.19-.15v-102.18h173.26v102.18c0,.11-.46.15-1.19.15-2,0-5.98-.3-7.98-.3-.73,0-1.19.04-1.19.15v42.94h42.94v-42.94c0-.11-.46-.15-1.19-.15-2,0-5.98.3-7.98.3-.73,0-1.19-.04-1.19-.15v-102.18h96.25v-100.7c0-.09.28-.12.74-.12.82,0,2.23.09,3.73.09,2.81,0,5.9-.32,5.9-2.19v-40.72h0Z"/>
    </g>
    <g>
      <polygon class="st2" points="262.2 44.39 381.87 44.39 262.2 122.25 262.2 44.39"/>
      <path class="st4" d="M379.38,45.13l-116.44,75.75V45.13h116.44M384.37,43.65h-122.91v79.97l122.91-79.97h0Z"/>
    </g>
    <g>
      <path class="st2" d="M243.89,130.42c-2.71,0-6.02-.88-6.52-3.34l1.13-101.94h168.82v103.96c-1.57.43-7.89,1.08-10.37,1.18V36.24l-.74-.74h-146.6l-.74.74v92.55c0,.65-1.99,1.62-4.98,1.62Z"/>
      <path class="st4" d="M406.58,25.88v102.63c-1.87.37-6.39.84-8.89.99V36.24l-1.48-1.48h-146.6l-1.48,1.48v92.43c-.31.33-1.81,1-4.24,1-2.58,0-5.34-.83-5.78-2.68l1.12-101.13h167.35M408.06,24.39h-170.3l-1.14,102.75c.52,2.89,4.02,4.01,7.26,4.01,2.97,0,5.72-.95,5.72-2.36V36.24h146.6v94.77c.06,0,.14,0,.23,0,2.06,0,11.62-.91,11.62-1.49V24.39h0Z"/>
    </g>
  </g>
  <rect class="st0" x="261.45" y="395.01" width="123.69" height="12.92"/>
  <rect class="st3" x="453.11" y="395.01" width="85.78" height="12.92"/>
</svg>